<svg width="512" height="512" viewBox="0 0 512 512" fill="none" xmlns="http://www.w3.org/2000/svg">
<g clip-path="url(#clip0)">
<path d="M290.59 192C270.41 192 183.77 193.98 128 277.95V192C128 139.06 84.94 96 32 96C14.33 96 0 110.33 0 128C0 145.67 14.33 160 32 160C49.64 160 64 174.36 64 192V448C64 483.3 92.7 512 128 512H304C312.84 512 320 504.84 320 496V480C320 462.33 305.67 448 288 448H256L384 352V496C384 504.84 391.16 512 400 512H432C440.84 512 448 504.84 448 496V289.86C437.71 292.53 427.11 294.4 416 294.4C354.19 294.4 302.48 250.35 290.59 192ZM448 96H384L320 32V166.4C320 219.42 362.98 262.4 416 262.4C469.02 262.4 512 219.42 512 166.4V99.2V32L448 96ZM376 176C367.16 176 360 168.84 360 160C360 151.16 367.16 144 376 144C384.84 144 392 151.16 392 160C392 168.84 384.84 176 376 176ZM456 176C447.16 176 440 168.84 440 160C440 151.16 447.16 144 456 144C464.84 144 472 151.16 472 160C472 168.84 464.84 176 456 176Z" fill="#DD9790"/>
</g>
<defs>
<clipPath id="clip0">
<rect width="512" height="512" fill="white"/>
</clipPath>
</defs>
</svg>
